<svg xmlns="http://www.w3.org/2000/svg" viewBox="0 0 274.23 162.96"><defs><style>.cls-1{fill:#f60;}.cls-2{fill:#1f3a5f;}</style></defs><g id="Calque_2" data-name="Calque 2"><g id="Calque_1-2" data-name="Calque 1"><path class="cls-1" d="M148.2,2.15,138.55,163H274.23V2.15Zm85.7,146.38c.52-24,.69-41,.87-66.09,0-12.11.86-26.65,1.21-40h-.52c-2.08,12.28-4.33,25.43-6.58,33.74L210.2,148.53H200L181.3,75.17c-2.24-9.34-4.67-21.8-6.57-33.05h-.52c.35,14,1,27.17,1.21,40.14,0,25.44.35,42.39.69,66.27H155.35c.35-18.69.35-37.55.35-65.06,0-28.37,0-47.75-.17-64.7h30.62c3.29,11.93,9.69,38.23,16.61,62.8,1.38,5.88,2.94,14.19,4.32,22h.7c1.38-8,3.11-15.91,4.67-21.8,6.57-24.56,13.32-51,16.61-63h28.2c-.35,17-.35,36.33-.35,64.7,0,27.51.17,46.37.52,65.06Z"/><path class="cls-2" d="M.21,145.19c0-27.63,16.92-44.11,33.2-56.11,16.7-13.92,26.76-24.2,26.76-45,0-12.85-5.56-18.84-15.63-18.84-11.35,0-16.27,7.49-16.27,23.55,0,5.79.21,11.35.42,18.64-3.21-.22-8.13-.22-13.06-.22-5.14,0-10.49,0-14.35.22C1.07,60.39.86,53.75.86,48,.86,19.49,14.35,0,45,0S88,18.42,88,42.83c0,34.9-18.2,48.61-36.4,64.67-13.06,10.06-20.77,19.49-22.06,30,8.35,0,17.56-.22,23.77-.22,12.21,0,23.34,0,33-.42-.22,3.85-.22,9.42-.22,14.77,0,4.71,0,8.78.22,11.35H0c.21-1.71.21-5.14.21-8.35Z"/><path class="cls-2" d="M100.28,163c.64-21.2.64-46.25.64-80.3,0-34.26,0-59.32-.64-80.3h30.4c-.64,21-.64,45.82-.64,80.08,0,34.05,0,59.11.64,80.52Z"/></g></g></svg>