<svg xmlns="http://www.w3.org/2000/svg" viewBox="0 0 306.3 195.64"><defs><style>.cls-1,.cls-2{fill:#575756;}.cls-2{font-size:16.32px;font-family:ObviouslyNarrow-SemiBold, Obviously Narrow;font-weight:600;}.cls-3{letter-spacing:-0.05em;}.cls-4{letter-spacing:0em;}.cls-5{letter-spacing:-0.01em;}.cls-6{letter-spacing:-0.01em;}.cls-7{letter-spacing:0em;}.cls-8{fill:#f60;}</style></defs><g id="Calque_2" data-name="Calque 2"><g id="Calque_1-2" data-name="Calque 1"><path class="cls-1" d="M28.5,191.39l-.27.32a3.71,3.71,0,0,1-.23-.32Z"/><path class="cls-1" d="M32.6,191.39a3.71,3.71,0,0,1-.23.32l-.28-.32Z"/><path class="cls-1" d="M0,92.32c.36-12,.36-26.2.36-45.49S.36,13.22,0,1.33H17.23c-.37,11.89-.37,26-.37,45.38s0,33.48.37,45.61Z"/><path class="cls-1" d="M84.79,1.33c-4.73,22.45-14.55,77.52-17.22,91-3.16-.12-7.64-.24-12.62-.24-6.67,0-10.43.12-12.74.24C39.79,78.85,29.72,20.87,25,1.33H44c1,9.83,5.1,38.7,8.25,60.05,1.22,6.92,2.07,12.86,2.79,17.47h.73c.61-4.73,1.46-10.67,2.55-17.47,3.27-21.35,7.52-51.19,8.49-60Z"/><path class="cls-1" d="M119.85,93.65c-18.68,0-30.09-14.19-30.09-48.28S102,0,119.85,0s30.33,11.28,30.33,45.37S138.41,93.65,119.85,93.65ZM133.07,46.1c0-23.9-4.85-30.69-13.1-30.69s-13.34,6.67-13.34,30.69S111.48,78.25,120,78.25,133.07,70,133.07,46.1Z"/><path class="cls-1" d="M161.46,92.32c.36-12,.36-26.2.36-45.49s0-33.61-.36-45.5h17.22c-.36,11.89-.36,26-.36,45.38s0,33.48.36,45.61Z"/><path class="cls-1" d="M231.45,56.41c8.25,1.33,11.28,4.73,14.19,16.5,1.82,7.4,3.52,15.28,4.74,19.41H234.12c-2.79,0-2.91-1.21-4.73-8.25-3.28-20.26-4.61-23.17-10.31-23.17-3.52,0-5.34,0-9.83.12.12,12.86.36,23.78.85,31.3H192.63c.12-13.22.24-26.08.24-45.49s-.12-32.39-.24-45.5H221.5C237.27,1.33,246.61,9,246.61,29c0,16.38-4.24,24.51-15.16,26.94Zm-1.09-24.63c0-14.07-3.88-16.37-11.89-16.37-1.82,0-6.07.12-9.46.24,0,10.92,0,21.71.12,31.9,2.18,0,6.31.13,11,.13C226.84,47.68,230.36,42.58,230.36,31.78Z"/><path class="cls-1" d="M306.3,1.33c-.12,1.58-.12,4.74-.12,7s0,6.19.12,8c-11-.12-21.6-.24-30.33-.24v23c10.55,0,20.62,0,29.48-.36V53.14c-8.74-.13-19.05-.25-29.48-.25v24c8.73,0,19.77,0,30.33-.12-.12,1.82-.12,5.46-.12,8.13,0,2.18,0,5.58.12,7.4H259.23c.36-11.65.36-26.08.36-45.49s0-34.82-.36-45.5Z"/><path class="cls-1" d="M0,168.55c.26-8.66.26-18.89.26-32.8s0-24.24-.26-32.81H12.42c-.26,8.57-.26,18.72-.26,32.72s0,24.15.26,32.89Z"/><path class="cls-1" d="M63.08,102.94c0,6-.18,18.81-.18,32.72,0,14.61,0,24.5.09,32.89H50.22c-2.19-6.56-8.14-22-13.48-34.82a131.42,131.42,0,0,1-4.63-18.19c.43,7.43.7,14,.78,19.77.09,17.15.09,28.61.27,33.24H22.4c.08-8.57.17-18.81.17-32.8s0-24.76-.17-32.81H37c1.48,4.9,7.87,20.56,13,34.38a106.41,106.41,0,0,1,4,15.14h.09c-.53-6.3-1-12.34-1-18.46,0-10.33-.35-24.68-.61-31.06Z"/><path class="cls-1" d="M90.72,102.94c15.92,0,23.19,5.77,23.19,32.19,0,25.73-6.57,33.42-23.45,33.42H73.22c.26-9,.26-18.81.26-32.72s0-24.93-.26-32.89Zm11.2,32.46c0-19.34-3.33-21.61-11-21.61-1.93,0-3.68.08-5.34.17-.18,6.3-.18,14.7-.18,22.14,0,10,0,16.62.09,21.43a47.83,47.83,0,0,0,5.16.18C98.77,157.71,101.92,155.08,101.92,135.4Z"/><path class="cls-1" d="M162.55,102.94c-.18,5.6-.27,11.28-.27,19.59,0,6.57.09,16.89.09,25.55,0,12.95-5.69,21.44-20.12,21.44S122,161,122,148.08c0-8.66.17-19,.17-25.55,0-8.31-.17-14-.35-19.59h12.51c-.35,10.5-.35,33.07-.35,45,0,7.52,2.54,10.67,8.58,10.67,5.6,0,7.87-3.15,7.87-10.67,0-11.9-.17-34.56-.35-45Z"/><path class="cls-1" d="M209.17,151.93c0,10.85-5.68,17.59-18.81,17.59-14.53,0-19.86-6.83-19.86-17.76a47,47,0,0,1,.18-5.42,50,50,0,0,0,5.5.25c2.46,0,4.64-.09,6.3-.18v3.25c0,7.51,1.85,9.7,7.88,9.7,5.69,0,7.52-2.19,7.52-6.72a12,12,0,0,0-.6-3.95c-1.09-3.22-3.84-6-9.45-8.31-12.6-4.46-17-11.54-17-21.87s6.3-16.54,18.9-16.54c13.74,0,19,5.77,19,17.33,0,1.66-.09,3.4-.17,5.43-1.31-.09-3.24-.09-5.33-.09s-4.2,0-5.7.09c.09-1.67.18-3.33.18-5,0-5.17-1.75-7.53-8.31-7.53-4.91,0-6.65,2.1-6.65,6.38,0,4.47,1.49,8.24,9.8,11.64,10.08,3.84,15.43,9.63,16.45,18.46A30.5,30.5,0,0,1,209.17,151.93Z"/><path class="cls-1" d="M235.28,102.94c-.06.84-.06,2.18-.06,3.42s0,2.57.06,3.53c-2.52-.06-5.05-.06-7.29-.06,0,13.51.06,31.9.23,35.21-1.07-.12-2.81-.12-4-.12s-2.81,0-3.93.12c.17-3.25.17-21.7.17-35.21-2.24,0-4.77,0-7.29.06.06-1,.06-2.41.06-3.53s0-2.53-.06-3.42Z"/><path class="cls-1" d="M257.36,128.39c3.82.61,5.22,2.18,6.56,7.62.84,3.42,1.63,7.07,2.19,9H258.6c-1.29,0-1.35-.56-2.19-3.81-1.51-9.36-2.13-10.71-4.76-10.71-1.63,0-2.47,0-4.54.06,0,5.94.16,11,.39,14.46h-8.07c0-6.11.11-12,.11-21s-.06-15-.11-21h13.34c7.29,0,11.6,3.53,11.6,12.78,0,7.57-2,11.32-7,12.44Zm-.5-11.38c0-6.51-1.79-7.57-5.49-7.57-.84,0-2.81.06-4.38.11,0,5,0,10,.06,14.75,1,0,2.91,0,5.1,0C255.23,124.35,256.86,122,256.86,117Z"/><path class="cls-1" d="M270.2,145c.17-5.55.17-12.11.17-21s0-15.53-.17-21h8c-.17,5.49-.17,12-.17,21s0,15.48.17,21.08Z"/><path class="cls-1" d="M306.3,102.94c-.05.73-.05,2.18-.05,3.25s0,2.86.05,3.7c-5.1-.06-10-.11-14-.11v10.65c4.87,0,9.53,0,13.62-.17v6.61c-4-.05-8.8-.11-13.62-.11v11.1c4,0,9.13,0,14-.05-.05.84-.05,2.52-.05,3.75,0,1,0,2.58.05,3.42H284.55c.17-5.38.17-12,.17-21s0-16.09-.17-21Z"/><text class="cls-2" transform="translate(0 192.41)">1</text><text class="cls-2" transform="translate(4.14 186.97) scale(0.58)">ER</text><text class="cls-2" transform="translate(14.09 192.41)"><tspan xml:space="preserve"> MÉDIA DÉDIÉ À </tspan><tspan class="cls-3" x="101.29" y="0">L</tspan><tspan class="cls-4" x="106.87" y="0">’INDUST</tspan><tspan class="cls-5" x="157.04" y="0">R</tspan><tspan x="166.01" y="0">IE EN C</tspan><tspan class="cls-6" x="210.39" y="0">Ô</tspan><tspan x="219.52" y="0">TE D’IVOI</tspan><tspan class="cls-5" x="275.24" y="0">R</tspan><tspan class="cls-7" x="284.21" y="0">E</tspan></text><path class="cls-8" d="M241,156.21c-.22-1.06-.38-2-.51-2.65h-.09c-.11.66-.29,1.57-.51,2.68l-.8,4.41c.49,0,1,0,1.34,0s.88,0,1.37,0C241.51,159.14,241.22,157.54,241,156.21Zm0,0c-.22-1.06-.38-2-.51-2.65h-.09c-.11.66-.29,1.57-.51,2.68l-.8,4.41c.49,0,1,0,1.34,0s.88,0,1.37,0C241.51,159.14,241.22,157.54,241,156.21Zm0,0c-.22-1.06-.38-2-.51-2.65h-.09c-.11.66-.29,1.57-.51,2.68l-.8,4.41c.49,0,1,0,1.34,0s.88,0,1.37,0C241.51,159.14,241.22,157.54,241,156.21Zm19.47,0c-.22-1.06-.38-2-.51-2.65h-.09c-.11.66-.29,1.57-.51,2.68l-.8,4.41c.49,0,1,0,1.35,0s.87,0,1.36,0C261,159.14,260.69,157.54,260.43,156.21Zm-19.47,0c-.22-1.06-.38-2-.51-2.65h-.09c-.11.66-.29,1.57-.51,2.68l-.8,4.41c.49,0,1,0,1.34,0s.88,0,1.37,0C241.51,159.14,241.22,157.54,241,156.21Zm19.47,0c-.22-1.06-.38-2-.51-2.65h-.09c-.11.66-.29,1.57-.51,2.68l-.8,4.41c.49,0,1,0,1.35,0s.87,0,1.36,0C261,159.14,260.69,157.54,260.43,156.21Zm0,0c-.22-1.06-.38-2-.51-2.65h-.09c-.11.66-.29,1.57-.51,2.68l-.8,4.41c.49,0,1,0,1.35,0s.87,0,1.36,0C261,159.14,260.69,157.54,260.43,156.21Zm-19.47,0c-.22-1.06-.38-2-.51-2.65h-.09c-.11.66-.29,1.57-.51,2.68l-.8,4.41c.49,0,1,0,1.34,0s.88,0,1.37,0C241.51,159.14,241.22,157.54,241,156.21Zm0,0c-.22-1.06-.38-2-.51-2.65h-.09c-.11.66-.29,1.57-.51,2.68l-.8,4.41c.49,0,1,0,1.34,0s.88,0,1.37,0C241.51,159.14,241.22,157.54,241,156.21Zm0,0c-.22-1.06-.38-2-.51-2.65h-.09c-.11.66-.29,1.57-.51,2.68l-.8,4.41c.49,0,1,0,1.34,0s.88,0,1.37,0C241.51,159.14,241.22,157.54,241,156.21Z"/><path class="cls-8" d="M212.58,148.69a28.55,28.55,0,0,1,.17,3.24c0,8.15-2.85,14.11-8.2,17.59H306.3V148.69Zm19.32,17.14c.06-2.53.07-4.32.09-7,0-1.28.09-2.81.13-4.21h-.06c-.21,1.29-.45,2.68-.69,3.55l-2,7.62h-1.07l-2-7.73c-.24-1-.49-2.3-.7-3.48h0c0,1.48.11,2.86.13,4.23,0,2.68,0,4.47.07,7h-2.19c0-2,0-4,0-6.85s0-5,0-6.82h3.23c.34,1.26,1,4,1.75,6.62.14.62.31,1.49.45,2.31h.08c.14-.84.33-1.67.49-2.29.69-2.59,1.4-5.38,1.75-6.64h3c0,1.78,0,3.83,0,6.82s0,4.88,0,6.85Zm10.7,0c0-.53-.24-1.75-.49-3.24H238.7c-.26,1.44-.46,2.64-.53,3.24h-2.61c.82-3.37,2.56-12,2.92-13.67h3.94c.4,1.71,2.11,10.25,3,13.67ZM254.27,157c-.29,0-.75,0-1.18,0a12,12,0,0,0-1.28,0c0-.26,0-.48,0-.68,0-1.62-.56-2.17-1.56-2.17-1.35,0-2,.82-2,4.71s.57,5,2.06,5c1.23,0,1.59-.8,1.53-3.5l-1.93,0c0-.18,0-.57,0-.78,0-.44,0-.81,0-1.1.7,0,1.39,0,1.92,0s1.51,0,2.37,0c.23,5-.39,7.51-4,7.51-3.09,0-4.45-2.42-4.45-7.2s1.4-6.87,4.54-6.87c3,0,4,1.89,4,4.17C254.29,156.41,254.29,156.7,254.27,157Zm7.8,8.82c-.05-.53-.23-1.75-.49-3.24h-3.41c-.25,1.44-.46,2.64-.53,3.24H255c.83-3.37,2.56-12,2.92-13.67h3.94c.4,1.71,2.12,10.25,3,13.67Zm3.61,0c0-.36,0-.67,0-1s0-.95,0-1.17c.53-.82,2.34-4.28,3.67-6.75.47-.91,1-1.85,1.36-2.53v-.05c-.57,0-1.15,0-1.83,0-1.78,0-2.46,0-3.13,0,0-.35,0-.86,0-1.13s0-.75,0-1.11h7.7c0,.36,0,.69,0,1s0,.87,0,1.15c-.53.85-2,4-3.41,6.52-.57,1.06-1,1.95-1.33,2.67v.05c.53,0,1.06,0,1.53,0,1.55,0,2.46,0,3.21-.07,0,.46,0,1,0,1.33s0,.64,0,1Zm12.16,0h-2.59c.06-1.8.06-3.94.06-6.83s0-5.06-.06-6.84h2.59c0,1.78,0,3.9,0,6.82S277.79,164,277.84,165.83Zm10.54,0h-2.66c-.46-1.36-1.7-4.59-2.81-7.25a27.85,27.85,0,0,1-1-3.8c.1,1.55.15,2.92.17,4.12,0,3.58,0,6,.05,6.93h-2.24c0-1.78,0-3.92,0-6.83s0-5.16,0-6.84h3c.32,1,1.65,4.28,2.7,7.16a21.72,21.72,0,0,1,.84,3.16h0c-.11-1.31-.2-2.57-.2-3.85,0-2.15-.07-5.14-.13-6.47h2.21c0,1.26,0,3.92,0,6.82S288.36,164.08,288.38,165.83Zm9.19-11.41c-1.66,0-3.25,0-4.56,0v3.47c1.59,0,3.1,0,4.43-.06v2.15c-1.31,0-2.86,0-4.43,0v3.61c1.31,0,3,0,4.56,0,0,.27,0,.82,0,1.22s0,.84,0,1.11h-7.08c.06-1.75.06-3.92.06-6.83s0-5.24-.06-6.84h7.08c0,.23,0,.71,0,1.06S297.55,154.14,297.57,154.42Z"/></g></g></svg>